<svg id="_ÎÓÈ_1" data-name="—ÎÓÈ_1" xmlns="http://www.w3.org/2000/svg" xmlns:xlink="http://www.w3.org/1999/xlink" viewBox="0 0 500.77 509"><defs><style>.cls-1{fill:url(#_ÂÁ_Ï_ÌÌ_È_ËÂÌÚ_2);}.cls-2{fill:url(#_ÂÁ_Ï_ÌÌ_È_ËÂÌÚ_31);}</style><radialGradient id="_ÂÁ_Ï_ÌÌ_È_ËÂÌÚ_2" cx="251.77" cy="256" r="247" gradientUnits="userSpaceOnUse"><stop offset="0" stop-color="#27282d"/><stop offset="0.43" stop-color="#202126"/><stop offset="1" stop-color="#0f1016"/></radialGradient><linearGradient id="_ÂÁ_Ï_ÌÌ_È_ËÂÌÚ_31" x1="140.47" y1="266.75" x2="359.78" y2="266.75" gradientUnits="userSpaceOnUse"><stop offset="0" stop-color="#be965d"/><stop offset="0.28" stop-color="#976f40"/><stop offset="0.43" stop-color="#c99b61"/><stop offset="0.56" stop-color="#f0be7b"/><stop offset="0.63" stop-color="#ffcb85"/><stop offset="0.71" stop-color="#eebc79"/><stop offset="0.87" stop-color="#c0935b"/><stop offset="1" stop-color="#976f40"/></linearGradient></defs><circle class="cls-1" cx="251.77" cy="256" r="247"/><path class="cls-2" d="M140.47,250V198.81H157a24.28,24.28,0,0,1,12.2,3.08,21.53,21.53,0,0,1,8.45,8.68,26.16,26.16,0,0,1,3.08,12.57v2.36a26.37,26.37,0,0,1-3,12.6,21.75,21.75,0,0,1-8.37,8.72,23.66,23.66,0,0,1-12,3.18Zm12.34-41.66v32.17h4.29a9.61,9.61,0,0,0,8.16-3.78q2.84-3.78,2.84-11.23v-2.22q0-7.41-2.84-11.18t-8.3-3.76Z"/><path class="cls-2" d="M186.39,202.15a5.28,5.28,0,0,1,1.82-4.15,7.81,7.81,0,0,1,9.5,0,5.64,5.64,0,0,1,0,8.3,7.77,7.77,0,0,1-9.5,0A5.28,5.28,0,0,1,186.39,202.15ZM199,250H187.09V212H199Z"/><path class="cls-2" d="M217.15,212l.38,4.47a12.9,12.9,0,0,1,10.87-5.17q5.94,0,8.87,3.55t3,10.69V250H228.43V226a6.39,6.39,0,0,0-1.16-4.24c-.77-.9-2.18-1.35-4.22-1.35a5.63,5.63,0,0,0-5.16,2.74V250H206V212Z"/><path class="cls-2" d="M265.28,250.7q-8.76,0-14.17-5.22t-5.42-13.59v-1a23.25,23.25,0,0,1,2.17-10.3,15.78,15.78,0,0,1,6.31-6.91,19,19,0,0,1,9.84-2.44q8,0,12.66,5t4.64,13.87v4.61H257.75a8.49,8.49,0,0,0,2.78,5,8.25,8.25,0,0,0,5.55,1.83,10.64,10.64,0,0,0,8.79-3.94l5.42,6.4a15.09,15.09,0,0,1-6.28,4.87A21.16,21.16,0,0,1,265.28,250.7Zm-1.34-30.3q-5.2,0-6.19,6.89h12v-.91a5.92,5.92,0,0,0-1.45-4.42A5.73,5.73,0,0,0,263.94,220.4Z"/><path class="cls-2" d="M317.69,250h-12.3V198.81h12.3Z"/><path class="cls-2" d="M336.61,212l.38,4.47a12.9,12.9,0,0,1,10.87-5.17q5.94,0,8.87,3.55t3,10.69V250H347.89V226a6.39,6.39,0,0,0-1.16-4.24c-.77-.9-2.18-1.35-4.22-1.35a5.63,5.63,0,0,0-5.16,2.74V250H325.5V212Z"/><path class="cls-2" d="M187.09,285.21l11.42,35.62,11.39-35.62h16.25V336.4H213.77V324.45L215,300,202.59,336.4h-8.15L182,299.94l1.19,24.51V336.4H170.88V285.21Z"/><path class="cls-2" d="M251.85,337.1q-8.76,0-14.17-5.22t-5.42-13.59v-1a23.25,23.25,0,0,1,2.17-10.3,15.78,15.78,0,0,1,6.31-6.91,19,19,0,0,1,9.84-2.44q8,0,12.66,5t4.64,13.87v4.61H244.32a8.49,8.49,0,0,0,2.78,5,8.25,8.25,0,0,0,5.55,1.83,10.66,10.66,0,0,0,8.79-3.93l5.42,6.39a15.09,15.09,0,0,1-6.28,4.87A21.13,21.13,0,0,1,251.85,337.1Zm-1.34-30.3q-5.2,0-6.19,6.89h12v-.91a5.92,5.92,0,0,0-1.45-4.42A5.72,5.72,0,0,0,250.51,306.8Z"/><path class="cls-2" d="M283.52,298.36l.39,4.47a12.87,12.87,0,0,1,10.86-5.17q5.94,0,8.88,3.55t3,10.69v24.5H294.81v-24a6.45,6.45,0,0,0-1.16-4.24c-.78-.9-2.18-1.35-4.22-1.35a5.65,5.65,0,0,0-5.17,2.74V336.4H272.41v-38Z"/><path class="cls-2" d="M335.9,332.29a12.2,12.2,0,0,1-10.16,4.81q-6.25,0-9.47-3.64T313.05,323V298.36H324.9v24.72q0,4.88,4.75,4.88,4.08,0,5.8-2.92V298.36h11.92v38H336.26Z"/></svg>