<svg id="_ÎÓÈ_1" data-name="—ÎÓÈ_1" xmlns="http://www.w3.org/2000/svg" xmlns:xlink="http://www.w3.org/1999/xlink" viewBox="0 0 500.77 509"><defs><style>.cls-1{fill:url(#_ÂÁ_Ï_ÌÌ_È_ËÂÌÚ_2);}.cls-2{fill:url(#_ÂÁ_Ï_ÌÌ_È_ËÂÌÚ_31);}</style><radialGradient id="_ÂÁ_Ï_ÌÌ_È_ËÂÌÚ_2" cx="251.77" cy="256" r="247" gradientUnits="userSpaceOnUse"><stop offset="0" stop-color="#27282d"/><stop offset="0.43" stop-color="#202126"/><stop offset="1" stop-color="#0f1016"/></radialGradient><linearGradient id="_ÂÁ_Ï_ÌÌ_È_ËÂÌÚ_31" x1="89.93" y1="266.53" x2="411.19" y2="266.53" gradientUnits="userSpaceOnUse"><stop offset="0" stop-color="#be965d"/><stop offset="0.28" stop-color="#976f40"/><stop offset="0.43" stop-color="#c99b61"/><stop offset="0.56" stop-color="#f0be7b"/><stop offset="0.63" stop-color="#ffcb85"/><stop offset="0.71" stop-color="#eebc79"/><stop offset="0.87" stop-color="#c0935b"/><stop offset="1" stop-color="#976f40"/></linearGradient></defs><circle class="cls-1" cx="251.77" cy="256" r="247"/><path class="cls-2" d="M132.72,208.34H117.36V250H105V208.34H89.93v-9.53h42.79Z"/><path class="cls-2" d="M152.9,250a13.45,13.45,0,0,1-1.13-3.41,11,11,0,0,1-9.14,4.11,13.5,13.5,0,0,1-9.14-3.25,10.34,10.34,0,0,1-3.76-8.17q0-6.19,4.57-9.35t13.29-3.17h3.66v-2c0-3.51-1.52-5.27-4.54-5.27q-4.22,0-4.22,4.17H130.64a10.62,10.62,0,0,1,4.7-9q4.69-3.44,12-3.44t11.49,3.55a12.33,12.33,0,0,1,4.33,9.74v16.84q.08,5.24,1.62,8v.6Zm-7.42-7.73a6.6,6.6,0,0,0,3.67-1,6,6,0,0,0,2.1-2.15v-6.08H147.8c-4.12,0-6.19,1.85-6.19,5.55a3.4,3.4,0,0,0,1.09,2.62A4,4,0,0,0,145.48,242.27Z"/><path class="cls-2" d="M185,235.83l-3.34,3.34V250H169.77V196h11.85v28.69l1.2-1.58L191.75,212H206l-13.32,15.65L206.83,250H193.26Z"/><path class="cls-2" d="M227.47,250.7q-8.76,0-14.17-5.22t-5.42-13.59v-1a23.25,23.25,0,0,1,2.17-10.3,15.78,15.78,0,0,1,6.31-6.91,19,19,0,0,1,9.84-2.44q8,0,12.66,5t4.64,13.87v4.61H219.94a8.49,8.49,0,0,0,2.78,5,8.25,8.25,0,0,0,5.55,1.83,10.64,10.64,0,0,0,8.79-3.94l5.42,6.4a15.09,15.09,0,0,1-6.28,4.87A21.16,21.16,0,0,1,227.47,250.7Zm-1.34-30.3q-5.2,0-6.19,6.89h11.95v-.91a5.87,5.87,0,0,0-1.44-4.42A5.73,5.73,0,0,0,226.13,220.4Z"/><path class="cls-2" d="M269.69,250a13.45,13.45,0,0,1-1.13-3.41,11,11,0,0,1-9.14,4.11,13.5,13.5,0,0,1-9.14-3.25,10.34,10.34,0,0,1-3.76-8.17q0-6.19,4.57-9.35t13.29-3.17H268v-2c0-3.51-1.52-5.27-4.54-5.27q-4.22,0-4.22,4.17H247.43a10.62,10.62,0,0,1,4.7-9q4.69-3.44,12-3.44t11.49,3.55a12.33,12.33,0,0,1,4.33,9.74v16.84c.05,3.49.58,6.16,1.62,8v.6Zm-7.42-7.73a6.6,6.6,0,0,0,3.67-1,6,6,0,0,0,2.1-2.15v-6.08h-3.45c-4.12,0-6.19,1.85-6.19,5.55a3.4,3.4,0,0,0,1.09,2.62A3.94,3.94,0,0,0,262.27,242.27Z"/><path class="cls-2" d="M319.33,234.39,323.16,212h11.36l-9,38h-10l-6.29-22.57L302.91,250h-10l-9-38h11.35l3.76,23,6-23h8.26Z"/><path class="cls-2" d="M360.18,250a13.45,13.45,0,0,1-1.13-3.41,11,11,0,0,1-9.14,4.11,13.5,13.5,0,0,1-9.14-3.25,10.37,10.37,0,0,1-3.76-8.17q0-6.19,4.57-9.35t13.29-3.17h3.66v-2q0-5.26-4.54-5.27-4.22,0-4.22,4.17H337.93a10.61,10.61,0,0,1,4.69-9q4.69-3.44,12-3.44t11.5,3.55a12.35,12.35,0,0,1,4.32,9.74v16.84q.07,5.24,1.62,8v.6Zm-7.42-7.73a6.66,6.66,0,0,0,3.68-1,6,6,0,0,0,2.09-2.15v-6.08h-3.45c-4.12,0-6.19,1.85-6.19,5.55a3.4,3.4,0,0,0,1.09,2.62A4,4,0,0,0,352.76,242.27Z"/><path class="cls-2" d="M392.17,233.41,398.5,212h12.69l-15.5,44.4L395,258q-3.3,7.38-11.67,7.38a18.44,18.44,0,0,1-4.89-.7v-8.44H380a8.11,8.11,0,0,0,3.81-.72,4.36,4.36,0,0,0,1.95-2.58l1-2.54L373.5,212h12.66Z"/><path class="cls-2" d="M187.09,285.21l11.42,35.62,11.39-35.62h16.25V336.4H213.77V324.45L215,300,202.59,336.4h-8.15L182,299.94l1.19,24.51V336.4H170.88V285.21Z"/><path class="cls-2" d="M251.85,337.1q-8.76,0-14.17-5.22t-5.42-13.59v-1a23.25,23.25,0,0,1,2.17-10.3,15.78,15.78,0,0,1,6.31-6.91,19,19,0,0,1,9.84-2.44q8,0,12.66,5t4.64,13.87v4.61H244.32a8.49,8.49,0,0,0,2.78,5,8.25,8.25,0,0,0,5.55,1.83,10.66,10.66,0,0,0,8.79-3.93l5.42,6.39a15.09,15.09,0,0,1-6.28,4.87A21.13,21.13,0,0,1,251.85,337.1Zm-1.34-30.3q-5.2,0-6.19,6.89h12v-.91a5.92,5.92,0,0,0-1.45-4.42A5.72,5.72,0,0,0,250.51,306.8Z"/><path class="cls-2" d="M283.52,298.36l.39,4.47a12.87,12.87,0,0,1,10.86-5.17q5.94,0,8.88,3.55t3,10.69v24.5H294.81v-24a6.45,6.45,0,0,0-1.16-4.24c-.78-.9-2.18-1.35-4.22-1.35a5.65,5.65,0,0,0-5.17,2.74V336.4H272.41v-38Z"/><path class="cls-2" d="M335.9,332.29a12.2,12.2,0,0,1-10.16,4.81q-6.25,0-9.47-3.64T313.05,323V298.36H324.9v24.72q0,4.88,4.75,4.88,4.08,0,5.8-2.92V298.36h11.92v38H336.26Z"/></svg>